<svg width="169" height="18" viewBox="0 0 169 18" fill="none" xmlns="http://www.w3.org/2000/svg">
<g clip-path="url(#clip0_0_163)">
<path d="M15.5 0C16.3284 0 17 0.671573 17 1.5V15.5C17 16.3284 16.3284 17 15.5 17H11.191L11.1927 10.9472H13.9045V8.16477H11.1927V6.95355L11.194 6.84995C11.2125 6.14286 11.4354 5.65555 12.3763 5.60358L12.5499 5.59898H14V3H11.8869L11.7041 3.00336C9.7795 3.07475 8.45529 4.28212 8.36915 6.45027L8.36468 6.67799V8.16477H6V10.9472H8.36468L8.363 17H1.5C0.671573 17 0 16.3284 0 15.5V1.5C0 0.671573 0.671573 0 1.5 0H15.5Z" fill="#3797EF"/>
<path d="M34.5059 12.9893H29.9805V4.63574H28.2168V14.5H34.5059V12.9893ZM38.9633 14.6504C41.1986 14.6504 42.559 13.1875 42.559 10.7607C42.559 8.34766 41.1918 6.88477 38.9633 6.88477C36.7416 6.88477 35.3676 8.35449 35.3676 10.7607C35.3676 13.1875 36.7211 14.6504 38.9633 14.6504ZM38.9633 13.2627C37.7807 13.2627 37.1039 12.3467 37.1039 10.7676C37.1039 9.18848 37.7807 8.27246 38.9633 8.27246C40.1391 8.27246 40.8158 9.18848 40.8158 10.7676C40.8158 12.3467 40.1459 13.2627 38.9633 13.2627ZM47.3309 17.3438C49.5115 17.3438 50.8924 16.2568 50.8924 14.541V7.02832H49.2586V8.22461H49.1424C48.7322 7.41113 47.8436 6.90527 46.825 6.90527C44.9178 6.90527 43.7352 8.39551 43.7352 10.6855C43.7352 12.9277 44.9109 14.3906 46.7977 14.3906C47.8367 14.3906 48.6502 13.9531 49.0809 13.1465H49.1971V14.5684C49.1971 15.5186 48.5203 16.0791 47.3582 16.0791C46.4285 16.0791 45.827 15.7441 45.7176 15.2178H44.0154C44.1521 16.5029 45.41 17.3438 47.3309 17.3438ZM47.3309 13.0439C46.1482 13.0439 45.4783 12.1279 45.4783 10.6787C45.4783 9.23633 46.1482 8.32031 47.3309 8.32031C48.5066 8.32031 49.2244 9.23633 49.2244 10.6855C49.2244 12.1279 48.5135 13.0439 47.3309 13.0439ZM57.2711 5.77734C57.8316 5.77734 58.2896 5.33301 58.2896 4.77246C58.2896 4.21875 57.8316 3.76758 57.2711 3.76758C56.7174 3.76758 56.2594 4.21875 56.2594 4.77246C56.2594 5.33301 56.7174 5.77734 57.2711 5.77734ZM56.4303 14.5H58.1187V7.02832H56.4303V14.5ZM60.0742 14.5H61.7695V10.1455C61.7695 9.02441 62.4053 8.32031 63.417 8.32031C64.4492 8.32031 64.9277 8.90137 64.9277 10.0635V14.5H66.623V9.66699C66.623 7.88965 65.7139 6.88477 64.0459 6.88477C62.9316 6.88477 62.1797 7.39062 61.8242 8.22461H61.708V7.02832H60.0742V14.5ZM82.0799 7.02832H80.3914L79.1541 12.6406H79.0379L77.5887 7.02832H75.9686L74.533 12.6406H74.4168L73.1727 7.02832H71.4637L73.4871 14.5H75.2508L76.7 9.08594H76.8162L78.2723 14.5H80.0564L82.0799 7.02832ZM84.2746 5.77734C84.8352 5.77734 85.2932 5.33301 85.2932 4.77246C85.2932 4.21875 84.8352 3.76758 84.2746 3.76758C83.7209 3.76758 83.2629 4.21875 83.2629 4.77246C83.2629 5.33301 83.7209 5.77734 84.2746 5.77734ZM83.4338 14.5H85.1223V7.02832H83.4338V14.5ZM87.6178 5.19629V7.07617H86.4352V8.39551H87.6178V12.5176C87.6178 13.96 88.3014 14.5342 90.0172 14.5342C90.3453 14.5342 90.6598 14.5068 90.9059 14.459V13.1602C90.7008 13.1807 90.5709 13.1943 90.3316 13.1943C89.6207 13.1943 89.3063 12.8594 89.3063 12.1143V8.39551H90.9059V7.07617H89.3063V5.19629H87.6178ZM92.5195 14.5H94.2148V10.1592C94.2148 9.06543 94.8369 8.33398 95.9512 8.33398C96.9355 8.33398 97.4551 8.92188 97.4551 10.0771V14.5H99.1504V9.68066C99.1504 7.90332 98.1797 6.8916 96.5801 6.8916C95.4658 6.8916 94.666 7.39746 94.3105 8.23828H94.1875V4.13672H92.5195V14.5ZM106.534 14.5V10.4736H110.67V9.03809H106.534V6.11914H111.059V4.63574H104.77V14.5H106.534ZM114.348 14.623C115.325 14.623 116.146 14.1992 116.563 13.4746H116.679V14.5H118.313V9.39355C118.313 7.81445 117.233 6.88477 115.312 6.88477C113.534 6.88477 112.297 7.71875 112.16 9.02441H113.76C113.917 8.51172 114.45 8.23145 115.23 8.23145C116.146 8.23145 116.638 8.64844 116.638 9.39355V10.0361L114.71 10.1523C112.892 10.2549 111.873 11.041 111.873 12.3809C111.873 13.748 112.905 14.623 114.348 14.623ZM114.847 13.3174C114.095 13.3174 113.555 12.9414 113.555 12.2988C113.555 11.6768 113.999 11.3281 114.949 11.2666L116.638 11.1504V11.7588C116.638 12.6475 115.872 13.3174 114.847 13.3174ZM126.667 9.52344C126.489 7.97852 125.327 6.88477 123.406 6.88477C121.157 6.88477 119.838 8.32715 119.838 10.7471C119.838 13.1943 121.164 14.6504 123.413 14.6504C125.306 14.6504 126.482 13.5977 126.667 12.0527H125.053C124.876 12.8389 124.288 13.2559 123.406 13.2559C122.251 13.2559 121.553 12.333 121.553 10.7471C121.553 9.18848 122.244 8.27246 123.406 8.27246C124.336 8.27246 124.896 8.79883 125.053 9.52344H126.667ZM133.011 12.4561C132.765 13.0166 132.184 13.3311 131.343 13.3311C130.229 13.3311 129.511 12.5381 129.47 11.2734V11.1846H134.692V10.6445C134.692 8.2998 133.414 6.88477 131.281 6.88477C129.114 6.88477 127.768 8.39551 127.768 10.7949C127.768 13.1875 129.094 14.6504 131.295 14.6504C133.059 14.6504 134.31 13.8027 134.617 12.4561H133.011ZM131.274 8.2041C132.293 8.2041 132.963 8.92188 132.997 10.0566H129.477C129.552 8.93555 130.263 8.2041 131.274 8.2041ZM140.401 14.623C142.287 14.623 143.47 13.1396 143.47 10.7676C143.47 8.38184 142.294 6.90527 140.401 6.90527C139.375 6.90527 138.514 7.4043 138.124 8.21777H138.008V4.13672H136.313V14.5H137.947V13.3174H138.063C138.487 14.1377 139.355 14.623 140.401 14.623ZM139.868 8.32031C141.023 8.32031 141.727 9.24316 141.727 10.7676C141.727 12.292 141.03 13.2148 139.868 13.2148C138.705 13.2148 137.981 12.2783 137.981 10.7676C137.981 9.25684 138.712 8.32031 139.868 8.32031ZM148.249 14.6504C150.484 14.6504 151.845 13.1875 151.845 10.7607C151.845 8.34766 150.477 6.88477 148.249 6.88477C146.027 6.88477 144.653 8.35449 144.653 10.7607C144.653 13.1875 146.007 14.6504 148.249 14.6504ZM148.249 13.2627C147.066 13.2627 146.389 12.3467 146.389 10.7676C146.389 9.18848 147.066 8.27246 148.249 8.27246C149.425 8.27246 150.101 9.18848 150.101 10.7676C150.101 12.3467 149.431 13.2627 148.249 13.2627ZM156.63 14.6504C158.865 14.6504 160.226 13.1875 160.226 10.7607C160.226 8.34766 158.859 6.88477 156.63 6.88477C154.408 6.88477 153.034 8.35449 153.034 10.7607C153.034 13.1875 154.388 14.6504 156.63 14.6504ZM156.63 13.2627C155.447 13.2627 154.771 12.3467 154.771 10.7676C154.771 9.18848 155.447 8.27246 156.63 8.27246C157.806 8.27246 158.483 9.18848 158.483 10.7676C158.483 12.3467 157.813 13.2627 156.63 13.2627ZM163.665 10.0908H163.548V4.13672H161.853V14.5H163.548V11.875L164.15 11.2734L166.549 14.5H168.6L165.415 10.2344L168.395 7.02832H166.426L163.665 10.0908Z" fill="#3797EF"/>
</g>
<defs>
<clipPath id="clip0_0_163">
<rect width="169" height="18" fill="white"/>
</clipPath>
</defs>
</svg>
